HIERARCHY
ROOT hips
{
  OFFSET 0 0 0
  CHANNELS 6 Xposition Yposition Zposition Zrotation Xrotation Yrotation
  JOINT spine
  {
    OFFSET 0 0.113684 0
    CHANNELS 3 Zrotation Xrotation Yrotation
    JOINT chest
    {
      OFFSET 0 0.170526 0
      CHANNELS 3 Zrotation Xrotation Yrotation
      JOINT upperChest
      {
        OFFSET 0 0.113684 0
        CHANNELS 3 Zrotation Xrotation Yrotation
        JOINT neck
        {
          OFFSET 0 0.132632 0
          CHANNELS 3 Zrotation Xrotation Yrotation
          JOINT head
          {
            OFFSET 0 0.151579 0
            CHANNELS 3 Zrotation Xrotation Yrotation
            End Site
            {
              OFFSET 0 0.132632 0
            }
          }
        }
        JOINT leftShoulder
        {
          OFFSET -0.075789 0.094737 0
          CHANNELS 3 Zrotation Xrotation Yrotation
          JOINT leftUpperArm
          {
            OFFSET -0.170526 0 0
            CHANNELS 3 Zrotation Xrotation Yrotation
            JOINT leftLowerArm
            {
              OFFSET -0.265263 0 0
              CHANNELS 3 Zrotation Xrotation Yrotation
              JOINT leftHand
              {
                OFFSET -0.227368 0 0
                CHANNELS 3 Zrotation Xrotation Yrotation
                End Site
                {
                  OFFSET -0.094737 0 0
                }
              }
            }
          }
        }
        JOINT rightShoulder
        {
          OFFSET 0.075789 0.094737 0
          CHANNELS 3 Zrotation Xrotation Yrotation
          JOINT rightUpperArm
          {
            OFFSET 0.170526 0 0
            CHANNELS 3 Zrotation Xrotation Yrotation
            JOINT rightLowerArm
            {
              OFFSET 0.265263 0 0
              CHANNELS 3 Zrotation Xrotation Yrotation
              JOINT rightHand
              {
                OFFSET 0.227368 0 0
                CHANNELS 3 Zrotation Xrotation Yrotation
                End Site
                {
                  OFFSET 0.094737 0 0
                }
              }
            }
          }
        }
      }
    }
  }
  JOINT leftUpperLeg
  {
    OFFSET -0.104211 -0.075789 0
    CHANNELS 3 Zrotation Xrotation Yrotation
    JOINT leftLowerLeg
    {
      OFFSET 0 -0.397895 0
      CHANNELS 3 Zrotation Xrotation Yrotation
      JOINT leftFoot
      {
        OFFSET 0 -0.378947 0
        CHANNELS 3 Zrotation Xrotation Yrotation
        JOINT leftToes
        {
          OFFSET 0 -0.047368 0.132632
          CHANNELS 3 Zrotation Xrotation Yrotation
          End Site
          {
            OFFSET 0 0 0.075789
          }
        }
      }
    }
  }
  JOINT rightUpperLeg
  {
    OFFSET 0.104211 -0.075789 0
    CHANNELS 3 Zrotation Xrotation Yrotation
    JOINT rightLowerLeg
    {
      OFFSET 0 -0.397895 0
      CHANNELS 3 Zrotation Xrotation Yrotation
      JOINT rightFoot
      {
        OFFSET 0 -0.378947 0
        CHANNELS 3 Zrotation Xrotation Yrotation
        JOINT rightToes
        {
          OFFSET 0 -0.047368 0.132632
          CHANNELS 3 Zrotation Xrotation Yrotation
          End Site
          {
            OFFSET 0 0 0.075789
          }
        }
      }
    }
  }
}
MOTION
Frames: 18
Frame Time: 0.033333
0 0.005414 0 2.510875 -0.079487 -1.811835 0 0 0 -1.235855 8.300091 -1.048421 3.688629 8.276989 -3.236714 -2.115784 -8.380092 1.88902 -3.073715 5.202678 1.821072 0 0 0.036326 -63.278357 12.975464 -22.876745 -11.423538 -20.162821 -40.892433 -0.921211 1.656258 -18.484273 0.002652 0.004624 -8.733455 75.415465 -3.153486 -2.115808 5.814258 5.194127 29.251396 1.064333 1.934759 12.127368 -4.349511 9.524622 0.392679 -0.295954 24.609973 0.706702 -2.080581 -8.909217 0.579263 -0.47094 -25.282915 -1.102698 -3.742783 -26.661094 -0.862418 -0.051494 9.75394 0.301576 1.924344 -9.228394 1.959551 0 0 0
0 0.001474 0 2.475023 -0.082707 -1.912772 0 0 0 -1.159709 8.490763 -1.14258 3.72113 8.463856 -3.517317 -2.109591 -8.577972 2.067353 -3.074754 4.891752 1.997422 0 0 0.036211 -62.546739 13.303281 -23.699978 -11.7669 -20.941911 -41.487291 -0.887252 1.590119 -19.992885 0.002652 0.004624 -8.733455 75.424944 -3.263193 -2.256786 5.640473 5.332799 29.050922 1.098269 2.000803 10.618772 -4.111917 9.153001 0.357808 -0.312112 26.038542 0.706353 -2.015533 -9.185322 0.828743 -0.36554 -22.65957 -0.948836 -3.464301 -30.550926 -0.923937 -0.17818 21.271017 0.485032 1.681079 -14.013908 2.240096 0.000003 -0.121009 0.003094
0 0.000011 0 2.372761 -0.081854 -1.976221 0 0 0 -1.04175 8.730955 -1.211963 3.667097 8.701304 -3.720071 -2.053263 -8.821406 2.198601 -3.013202 4.575718 2.126897 0 0.000115 0.140033 -62.250419 13.429095 -24.027597 -12.011599 -21.238989 -41.883762 -0.855418 1.528297 -21.404931 0.002636 0.004514 -8.550848 75.427864 -3.298274 -2.301983 5.518024 5.377599 28.918379 1.13011 2.062679 9.20666 -3.880556 9.630304 0.353942 -0.307273 26.622354 0.680557 -1.442068 -7.60529 1.345138 -0.179408 -16.39759 -0.635289 -3.064584 -31.626446 -0.848367 -0.258208 27.534352 0.551119 1.252344 -12.372433 2.306519 0.000048 -0.467196 0.011803
0 0.001443 0 2.21132 -0.077205 -1.998493 0 0 0 -0.894061 9.000508 -1.245026 3.525069 8.969709 -3.811244 -1.949233 -9.089129 2.261429 -2.888208 4.283019 2.188826 -0.000115 0.000229 0.303781 -62.583711 13.288045 -23.65998 -12.129831 -20.85638 -42.009919 -0.826641 1.472098 -22.688144 0.002502 0.004415 -8.262799 75.419116 -3.179681 -2.149306 5.441876 5.224724 28.858839 1.158939 2.11889 7.923546 -3.553394 9.805594 0.329529 -0.325703 28.681958 0.672531 -0.761562 -4.894192 1.645209 -0.05043 -8.913295 -0.325534 -2.583326 -31.23476 -0.705573 -0.280319 31.095759 0.534264 0.763547 -8.041109 2.24163 0.000455 -1.01357 0.025559
0 0.005357 0 1.998275 -0.068326 -1.958946 0 0 0 -0.728047 9.278028 -1.235289 3.295243 9.24795 -3.771006 -1.800626 -9.359631 2.244302 -2.708029 4.216313 2.173728 -0.000116 0.000229 0.520018 -63.622322 12.817387 -22.490117 -12.104838 -19.646381 -41.809135 -0.80129 1.422893 -23.810288 0.002357 0.004202 -7.882323 75.390049 -2.847279 -1.721511 5.40747 4.795368 28.875669 1.184198 2.167995 6.801404 -3.055367 8.406087 0.245852 -0.406185 34.325433 0.712879 -0.374311 -1.458917 1.539994 -0.004342 -2.634805 -0.09409 -2.053123 -29.837907 -0.533673 -0.252136 32.784833 0.455925 0.358144 -3.920025 2.08426 0.001351 -1.734983 0.043799
0 0.011134 0 1.741062 -0.056135 -1.846081 0 0 0 -0.546697 9.539198 -1.194817 2.98989 9.511279 -3.63543 -1.613154 -9.610273 2.171352 -2.487993 4.489368 2.10661 -0.000232 0.000457 0.781294 -65.285162 11.946787 -20.516649 -11.953739 -17.559867 -41.279504 -0.780459 1.382253 -24.739113 0.002211 0.003991 -7.422695 75.332054 -2.331149 -1.057064 5.420793 4.127556 29.032926 1.205125 2.208772 5.872507 -2.374251 4.892875 0.117973 -0.539563 43.380043 0.776724 -0.565941 3.843624 1.211903 0 0 0 -1.496042 -27.75367 -0.359813 -0.192738 33.193939 0.340954 0.146568 -2.81907 1.86579 0.002986 -2.60639 0.065746
0 0.018155 0 1.446758 -0.042171 -1.669605 0 0 0 -0.354046 9.76032 -1.131153 2.619636 9.735719 -3.427319 -1.392767 -9.818823 2.05786 -2.231551 4.996404 2.001737 -0.000235 0.000571 1.080038 -67.276958 10.664562 -17.932831 -11.717927 -14.822957 -40.496844 -0.764607 1.351404 -25.442434 0.002058 0.003664 -6.897082 75.232517 -1.65715 -0.187887 5.489281 3.252431 29.334228 1.220959 2.239531 5.16917 -1.565038 -0.567157 0.003141 -0.63262 53.640912 0.775048 -1.038991 10.386373 0.843655 0 0 0 -0.922831 -25.158505 -0.199825 -0.119493 32.642285 0.209081 0.070309 -3.862079 1.615875 0.005731 -3.602768 0.091096
0 0.0258 0 1.122864 -0.028204 -1.439559 0 0 0 -0.154924 9.917906 -1.048803 2.194394 9.897366 -3.161071 -1.145073 -9.962946 1.913232 -1.94164 5.631898 1.8675 -0.000354 0.000798 1.40871 -69.226826 9.076408 -15.082818 -11.425273 -11.864712 -39.56028 -0.754496 1.331969 -25.888097 0.001791 0.003344 -6.318573 75.076619 -0.847667 0.859445 5.614165 2.196093 29.733026 1.230956 2.259029 4.723635 -0.698338 -7.469444 -0.040762 -0.515725 63.570083 0.563584 -1.345686 16.225996 0.38203 0 0 0 -0.342106 -22.183095 -0.064731 -0.047136 31.316144 0.076882 0.029769 -4.412361 1.332343 0.009708 -4.698989 0.119215
0 0.033449 0 0.776813 -0.015808 -1.165333 0 0 0 0.046512 9.988946 -0.950757 1.724252 9.972801 -2.846769 -0.875818 -10.02079 1.742789 -1.622485 6.289987 1.707775 -0.000472 0.00091 1.75997 -70.889611 7.361101 -12.289812 -11.083856 -9.029934 -38.544267 -0.750989 1.325071 -26.043753 0.001642 0.003016 -5.700638 74.849669 0.076565 2.062679 5.795646 0.980791 30.210403 1.234489 2.265862 4.567943 0.187198 -15.347308 0.023951 0.178631 72.299244 -0.202167 -1.475188 21.736804 -0.159146 0 0 0 0.238952 -18.927719 0.038206 0.013947 29.387769 -0.0437 0.026739 -4.567628 1.029896 0.015237 -5.870113 0.149487
0 0.040482 0 0.415937 -0.006205 -0.85691 0 0 0 0.246916 9.961125 -0.838902 1.220363 9.949512 -2.491005 -0.591285 -9.980889 1.549397 -1.282482 6.854196 1.523146 -0.000594 0.001135 2.12625 -72.192229 5.674359 -9.739491 -10.688709 -6.480658 -37.485184 -0.750989 1.325071 -26.043753 0.001495 0.002687 -5.056165 74.53643 1.095851 3.402737 6.033492 -0.373483 30.75736 1.234489 2.265862 4.567943 1.060056 -23.674617 0.215042 2.308676 79.011293 -2.369076 -1.431572 27.175461 -0.747504 0 0 0 0.812982 -15.504782 0.105127 0.058508 27.066397 -0.145146 0.062089 -4.450523 0.721337 0.022377 -7.090827 0.18141
0 0.046279 0 0.047439 -0.000446 -0.523915 0 0 0 0.44412 9.850297 -0.71446 0.695725 9.842821 -2.098474 -0.298629 -9.85974 1.333205 -0.944519 7.179522 1.309908 -0.000717 0.00136 2.500013 -73.164058 4.109501 -7.497735 -10.236198 -4.259084 -36.403067 -0.756971 1.33671 -25.780227 0.001237 0.002361 -4.398647 74.123212 2.190832 4.863199 6.326952 -1.848938 31.36974 1.228619 2.254324 4.831333 1.891831 -31.746642 0.525842 6.989836 82.96731 -7.062412 -1.236948 32.527897 -1.333352 0 0 0 1.372502 -12.045632 0.135366 0.086401 24.612966 -0.225625 0.135889 -4.216082 0.417583 0.03115 -8.336397 0.214597
0 0.050217 0 -0.320974 0.000952 -0.176236 0 0 0 0.636149 9.675277 -0.578254 0.163252 9.671698 -1.67264 -0.004413 -9.677202 1.094453 -0.608134 7.261969 1.069605 -0.000842 0.001584 2.873802 -73.868761 2.709014 -5.565594 -9.730888 -2.353536 -35.32019 -0.765328 1.352891 -25.408221 0.001098 0.002028 -3.741042 73.597808 3.342464 6.429726 6.674333 -3.429301 32.045944 1.220258 2.238058 5.203387 2.654352 -38.678669 0.915456 11.048704 83.694719 -11.136835 -1.067141 34.143533 -1.781649 0 0 0 1.908655 -8.702448 0.131909 0.101981 22.34265 -0.288091 0.247538 -4.052193 0.129036 0.041277 -9.581565 0.248281
0 0.051676 0 -0.682047 -0.00208 0.176229 0 0 0 0.820093 9.455693 -0.431298 -0.365321 9.454881 -1.216582 0.284961 -9.452877 0.833394 -0.036181 7.214225 0.837943 -0.000854 0.00181 3.240047 -74.370359 1.484486 -3.919209 -9.187961 -0.734099 -34.266627 -0.778391 1.378301 -24.82834 0.000848 0.001697 -3.096647 72.949884 4.530972 8.088707 7.072995 -5.098849 32.784938 1.207175 2.21267 5.783256 3.314938 -43.894927 1.316572 9.675592 81.480756 -9.805759 -1.122961 29.773715 -1.966668 0 0 0 2.41063 -5.678092 0.102694 0.112767 20.681173 -0.340323 0.39589 -4.206365 -0.132809 0.052793 -10.801578 0.282043
0 0.050241 0 -1.028327 -0.0094 0.523851 0 0 0 0.992496 9.210652 -0.274129 -0.878492 9.211837 -0.733076 0.563263 -9.2066 0.550389 0.466507 7.054195 0.573197 -0.000977 0.001918 3.591314 -74.722269 0.431897 -2.528331 -8.629503 0.632349 -33.275796 -0.797118 1.414771 -23.995919 0.000717 0.00136 -2.47858 72.171988 5.736459 9.827423 7.519177 -6.842718 33.586125 1.188389 2.176217 6.61571 3.825056 -47.087906 1.645414 6.465539 76.748567 -6.665883 -1.325038 21.319174 -1.981619 0 0 0 2.864339 -3.147171 0.058636 0.126822 20.00724 -0.393096 0.580583 -4.907093 -0.353742 0.065425 -11.971243 0.315188
0 0.046323 0 -1.352217 -0.020194 0.856634 0 0 0 1.149501 8.960277 -0.10777 -1.365894 8.962517 -0.224576 0.824942 -8.958464 0.24635 0.852797 6.806094 0.272554 -0.001105 0.002141 3.920028 -74.965943 -0.459454 -1.363326 -8.080482 1.776254 -32.376185 -0.822682 1.464376 -22.86475 0.000475 0.001024 -1.900238 71.259988 6.938419 11.632191 8.007624 -8.645998 34.448009 1.162943 2.126572 7.746941 4.132302 -48.104064 1.821731 3.948054 69.797475 -4.231099 -1.544955 10.934498 -1.963643 0 0 0 3.254761 -0.956862 0.004372 0.145234 20.052883 -0.446935 0.801402 -6.062971 -0.520894 0.078355 -13.0659 0.346806
0 0.040544 0 -1.646594 -0.033474 1.164938 0 0 0 1.286676 8.724879 0.06688 -1.818458 8.726736 0.306341 1.064421 -8.728687 -0.077131 1.189375 6.495256 -0.051418 -0.001229 0.002248 4.218723 -75.132462 -1.203412 -0.39811 -7.563093 2.724024 -31.585415 -0.855418 1.528297 -21.404933 0.000353 0.000798 -1.374564 70.214055 8.116026 13.487747 8.531614 -10.493231 35.367401 1.13011 2.062679 9.206659 4.222101 -46.986645 1.811907 2.30064 60.958242 -2.655705 -1.715711 0.970588 -1.988469 0 0 0 3.574436 1.139767 -0.06056 0.164113 20.351096 -0.495964 1.051285 -7.477321 -0.626666 0.091442 -14.060352 0.37636
0 0.033523 0 -1.903919 -0.047868 1.439055 0 0 0 1.397857 8.524662 0.248957 -2.22748 8.525003 0.857239 1.276834 -8.537257 -0.418376 1.488131 6.145309 -0.394002 -0.001244 0.002474 4.479952 -75.244549 -1.813204 0.389973 -7.093605 3.498087 -30.90987 -0.895291 1.605693 -19.637393 0.000234 0.000571 -0.914909 69.040353 9.247655 15.375478 9.082162 -12.368458 36.338804 1.090303 1.985265 10.974316 4.128468 -43.920922 1.641069 1.259996 50.472997 -1.657348 -1.811128 -6.423343 -2.056079 0 0 0 3.817459 3.38299 -0.1395 0.176291 20.433335 -0.529779 1.322018 -8.945231 -0.668361 0.103736 -14.92991 0.402721
0 0.025879 0 -2.116872 -0.061674 1.66915 0 0 0 1.476959 8.38041 0.437605 -2.586184 8.378051 1.425987 1.457411 -8.4045 -0.77497 1.75028 5.7798 -0.751745 -0.001367 0.002582 4.696249 -75.318793 -2.30216 1.020119 -6.681685 4.1172 -30.346905 -0.939642 1.691974 -17.667512 0.000116 0.000343 -0.534454 67.752823 10.311123 17.270695 9.648303 -14.252937 37.353575 1.045965 1.898983 12.944049 3.914594 -39.426721 1.379263 0.622809 38.691913 -1.01976 -1.835826 -10.641887 -2.129669 0 0 0 3.978673 5.999135 -0.236353 0.173466 19.842439 -0.536151 1.60557 -10.259277 -0.65061 0.114635 -15.649487 0.425106
